<svg xmlns="http://www.w3.org/2000/svg" width="748" height="731" viewBox="0 0 748 731"><g><g opacity=".6"><path fill="#fbf1f1" d="M509.351.004C596.678.6 646.323 36.456 677.425 84.86c31.103 48.405.201 161.146 8.575 188.635 8.374 27.489 109.462 320.374-94.5 413-203.962 92.626-374.634 20.453-436.839-42.294C92.456 581.456 51.185 494.208 30.848 469.707 10.512 445.206-28.325 362.54 38 272.496c66.324-90.045 193-41 272.5-121S422.024-.594 509.35.004z"/></g><g><path fill="#372665" d="M372.73 586.515h108.386V550.38H372.73z"/></g><g><path fill="#566cd3" d="M539.499 583.92H314.366c-7.614 0-13.786 6.982-13.786 15.595h252.7c0-8.613-6.17-15.595-13.781-15.595"/></g><g><path fill="#566cd3" d="M573.87 550.382H279.989c-11.63 0-21.058-9.427-21.058-21.055V288.885c0-11.628 9.429-21.055 21.058-21.055h293.883c11.63 0 21.058 9.427 21.058 21.055v240.442c0 11.628-9.428 21.055-21.058 21.055"/></g><g><path fill="#372665" d="M594.93 517.871h-336V288.885c0-11.628 9.429-21.055 21.058-21.055h293.883c11.63 0 21.058 9.427 21.058 21.055z"/></g><g clip-path="url(#clip-79CFF88D-5836-F693-9AC8-B489F3EAD8FD)"><path fill="#fff" d="M275.19 501.609h303.482V284.08H275.19z"/></g><g clip-path="url(#clip-79CFF88D-5836-F693-9AC8-B489F3EAD8FD)"><path fill="#8149e0" d="M304.09 239.278h245.681V209.8H304.09z"/></g><g clip-path="url(#clip-79CFF88D-5836-F693-9AC8-B489F3EAD8FD)"><path fill="#e8e5ed" d="M304.09 501.615h245.681V239.28H304.09z"/></g><g clip-path="url(#clip-79CFF88D-5836-F693-9AC8-B489F3EAD8FD)"><path fill="#e8e5ed" d="M322.303 224.541a4.212 4.212 0 1 0-8.424.002 4.212 4.212 0 0 0 8.424-.002"/></g><g clip-path="url(#clip-79CFF88D-5836-F693-9AC8-B489F3EAD8FD)"><path fill="#e8e5ed" d="M339.993 224.541a4.212 4.212 0 1 0-8.424.002 4.212 4.212 0 0 0 8.424-.002"/></g><g clip-path="url(#clip-79CFF88D-5836-F693-9AC8-B489F3EAD8FD)"><path fill="#e8e5ed" d="M357.683 224.541a4.213 4.213 0 0 0-8.423 0 4.212 4.212 0 0 0 8.423 0"/></g><g clip-path="url(#clip-79CFF88D-5836-F693-9AC8-B489F3EAD8FD)"><path fill="#fff" d="M323.74 400.837h206.372V340.06H323.74z"/></g><g clip-path="url(#clip-79CFF88D-5836-F693-9AC8-B489F3EAD8FD)"><path fill="#fff" d="M323.74 481.957h206.372V421.18H323.74z"/></g><g clip-path="url(#clip-79CFF88D-5836-F693-9AC8-B489F3EAD8FD)"><path fill="#fff" d="M323.74 319.707h206.372V258.93H323.74z"/></g><g clip-path="url(#clip-79CFF88D-5836-F693-9AC8-B489F3EAD8FD)"><path fill="#e6c8ed" d="M335.18 370.44c0 10.466 8.485 18.95 18.953 18.95 10.467 0 18.952-8.484 18.952-18.95 0-10.465-8.485-18.95-18.952-18.95-10.468 0-18.953 8.485-18.953 18.95"/></g><g clip-path="url(#clip-79CFF88D-5836-F693-9AC8-B489F3EAD8FD)"><path fill="#daaee5" d="M365.995 377.56a23.947 23.947 0 0 0-3.409-1.281c-.504-.15-1.013-.291-1.531-.415-.006-.001-.013-.002-.019-.005a5.287 5.287 0 0 1-.869-.33c-1.253-.594-2.19-1.65-2.47-2.94 2.014-1.46 3.366-4.108 3.366-7.143 0-1.187-.212-2.237-.584-3.15-1.07-2.626-3.504-4.076-6.344-4.076-2.837 0-5.266 1.446-6.339 4.065-.375.917-.59 1.97-.59 3.161 0 3.035 1.351 5.684 3.366 7.142l-.01.056c-.272 1.286-1.209 2.336-2.46 2.905-.285.13-.582.242-.898.318h-.002c-.52.125-1.023.263-1.533.416-1.175.35-2.32.769-3.398 1.28-1.668.787-2.731 2.354-2.731 4.078v.894c3.477 4.191 8.722 6.862 14.595 6.862 5.871 0 11.119-2.67 14.593-6.862v-.892c0-1.725-1.065-3.294-2.733-4.083"/></g><g clip-path="url(#clip-79CFF88D-5836-F693-9AC8-B489F3EAD8FD)"><path fill="#e6c8ed" d="M335.18 451.57c0 10.466 8.485 18.95 18.953 18.95 10.467 0 18.952-8.484 18.952-18.95 0-10.465-8.485-18.95-18.952-18.95-10.468 0-18.953 8.485-18.953 18.95"/></g><g clip-path="url(#clip-79CFF88D-5836-F693-9AC8-B489F3EAD8FD)"><path fill="#daaee5" d="M365.995 458.68a23.947 23.947 0 0 0-3.409-1.281c-.504-.15-1.013-.291-1.531-.413-.006-.003-.013-.004-.019-.006a5.42 5.42 0 0 1-.869-.331c-1.253-.594-2.19-1.65-2.47-2.94 2.014-1.458 3.366-4.108 3.366-7.143 0-1.187-.212-2.237-.584-3.15-1.07-2.626-3.504-4.076-6.344-4.076-2.837 0-5.266 1.446-6.339 4.065-.375.917-.59 1.97-.59 3.161 0 3.035 1.351 5.684 3.366 7.142l-.01.056c-.272 1.286-1.209 2.336-2.46 2.905-.285.13-.582.242-.898.318l-.002.002c-.52.123-1.023.262-1.533.414-1.175.35-2.32.769-3.398 1.28-1.668.787-2.731 2.354-2.731 4.078v.894c3.477 4.191 8.722 6.862 14.595 6.862 5.871 0 11.119-2.67 14.593-6.862v-.892c0-1.725-1.065-3.294-2.733-4.083"/></g><g clip-path="url(#clip-79CFF88D-5836-F693-9AC8-B489F3EAD8FD)"><path fill="#75ccf2" d="M335.18 289.32c0 10.466 8.485 18.95 18.953 18.95 10.467 0 18.952-8.484 18.952-18.95s-8.485-18.95-18.952-18.95c-10.468 0-18.953 8.484-18.953 18.95"/></g><g clip-path="url(#clip-79CFF88D-5836-F693-9AC8-B489F3EAD8FD)"><path fill="#3dacd3" d="M365.995 296.43a23.947 23.947 0 0 0-3.409-1.281c-.504-.15-1.013-.291-1.531-.415-.006-.001-.013-.002-.019-.005a5.287 5.287 0 0 1-.869-.33c-1.253-.594-2.19-1.65-2.47-2.94 2.014-1.46 3.366-4.108 3.366-7.143 0-1.189-.212-2.237-.584-3.15-1.07-2.626-3.504-4.076-6.344-4.076-2.837 0-5.266 1.446-6.339 4.065-.375.917-.59 1.97-.59 3.161 0 3.035 1.351 5.682 3.366 7.142l-.01.056c-.272 1.286-1.209 2.336-2.46 2.905-.285.13-.582.242-.898.318h-.002c-.52.124-1.023.263-1.533.416-1.175.35-2.32.769-3.398 1.28-1.668.787-2.731 2.354-2.731 4.078v.894c3.477 4.191 8.722 6.862 14.595 6.862 5.871 0 11.119-2.67 14.593-6.862v-.892c0-1.725-1.065-3.294-2.733-4.083"/></g><g clip-path="url(#clip-79CFF88D-5836-F693-9AC8-B489F3EAD8FD)"><path fill="#cbcacc" d="M383.76 386.802h35.679v-4.632H383.76z"/></g><g clip-path="url(#clip-79CFF88D-5836-F693-9AC8-B489F3EAD8FD)"><path fill="#cbcacc" d="M432.08 386.802h78.485v-4.632H432.08z"/></g><g clip-path="url(#clip-79CFF88D-5836-F693-9AC8-B489F3EAD8FD)"><path fill="#cbcacc" d="M383.76 372.762h91.135v-4.632H383.76z"/></g><g clip-path="url(#clip-79CFF88D-5836-F693-9AC8-B489F3EAD8FD)"><path fill="#cbcacc" d="M383.76 467.922h72.184v-4.632H383.76z"/></g><g clip-path="url(#clip-79CFF88D-5836-F693-9AC8-B489F3EAD8FD)"><path fill="#cbcacc" d="M383.76 453.882h126.237v-4.632H383.76z"/></g><g clip-path="url(#clip-79CFF88D-5836-F693-9AC8-B489F3EAD8FD)"><path fill="#bababa" d="M383.76 358.722h56.74v-4.632h-56.74z"/></g><g clip-path="url(#clip-79CFF88D-5836-F693-9AC8-B489F3EAD8FD)"><path fill="#bababa" d="M453.14 358.722h49.001v-4.632H453.14z"/></g><g clip-path="url(#clip-79CFF88D-5836-F693-9AC8-B489F3EAD8FD)"><path fill="#bababa" d="M383.76 439.852h34.275v-4.632H383.76z"/></g><g clip-path="url(#clip-79CFF88D-5836-F693-9AC8-B489F3EAD8FD)"><path fill="#bababa" d="M430.67 439.852h53.212v-4.632H430.67z"/></g><g clip-path="url(#clip-79CFF88D-5836-F693-9AC8-B489F3EAD8FD)"><path fill="#bababa" d="M383.76 277.592h72.184v-4.632H383.76z"/></g><g clip-path="url(#clip-79CFF88D-5836-F693-9AC8-B489F3EAD8FD)"><path fill="#bababa" d="M468.58 277.592h49v-4.632h-49z"/></g><g clip-path="url(#clip-79CFF88D-5836-F693-9AC8-B489F3EAD8FD)"><path fill="#cbcacc" d="M383.76 305.672h55.336v-4.632H383.76z"/></g><g clip-path="url(#clip-79CFF88D-5836-F693-9AC8-B489F3EAD8FD)"><path fill="#cbcacc" d="M451.73 305.672h49v-4.632h-49z"/></g><g clip-path="url(#clip-79CFF88D-5836-F693-9AC8-B489F3EAD8FD)"><path fill="#cbcacc" d="M383.76 291.632h102.366V287H383.76z"/></g><g clip-path="url(#clip-79CFF88D-5836-F693-9AC8-B489F3EAD8FD)"><path fill="#75ccf2" d="M701.386 346.86H532.92c-7.752 0-14.039 6.286-14.039 14.037v224.591c0 7.751 6.287 14.037 14.039 14.037h168.467c7.752 0 14.039-6.286 14.039-14.037V360.897c0-7.751-6.287-14.037-14.039-14.037"/></g><g clip-path="url(#clip-79CFF88D-5836-F693-9AC8-B489F3EAD8FD)"><path fill="#fff" d="M532.92 567.235h168.467V379.14H532.92z"/></g><g clip-path="url(#clip-79CFF88D-5836-F693-9AC8-B489F3EAD8FD)"><path fill="#566cd3" d="M537.13 405.92h160.044v-22.46H537.13z"/></g><g clip-path="url(#clip-79CFF88D-5836-F693-9AC8-B489F3EAD8FD)"><path fill="#e8e5ed" d="M551.658 394.818a3.158 3.158 0 1 0-6.316 0 3.158 3.158 0 0 0 6.316 0"/></g><g clip-path="url(#clip-79CFF88D-5836-F693-9AC8-B489F3EAD8FD)"><path fill="#e8e5ed" d="M564.928 394.818a3.159 3.159 0 1 0-6.318.001 3.159 3.159 0 0 0 6.318 0"/></g><g clip-path="url(#clip-79CFF88D-5836-F693-9AC8-B489F3EAD8FD)"><path fill="#e8e5ed" d="M578.198 394.818a3.159 3.159 0 1 0-6.318.001 3.159 3.159 0 0 0 6.318 0"/></g><g clip-path="url(#clip-79CFF88D-5836-F693-9AC8-B489F3EAD8FD)"><path fill="#9979e2" d="M546.96 440.315c0 13.566 11 24.564 24.568 24.564 13.567 0 24.568-10.998 24.568-24.564 0-13.567-11-24.565-24.568-24.565-13.568 0-24.568 10.998-24.568 24.565"/></g><g clip-path="url(#clip-79CFF88D-5836-F693-9AC8-B489F3EAD8FD)"><path fill="#8149e0" d="M586.903 449.531c-1.403-.664-2.888-1.207-4.417-1.662a36.586 36.586 0 0 0-2.012-.543 6.78 6.78 0 0 1-1.125-.43c-1.623-.769-2.84-2.137-3.203-3.81 2.612-1.89 4.364-5.325 4.364-9.26 0-1.538-.276-2.9-.757-4.083-1.387-3.403-4.543-5.283-8.224-5.283-3.677 0-6.826 1.875-8.219 5.27-.484 1.187-.765 2.551-.765 4.097 0 3.934 1.752 7.368 4.364 9.257-.005.024-.007.054-.012.073-.352 1.668-1.566 3.03-3.188 3.766a6.48 6.48 0 0 1-1.165.414c-.677.16-1.328.342-1.988.537a31.063 31.063 0 0 0-4.408 1.66c-2.16 1.02-3.538 3.052-3.538 5.287v1.159c4.506 5.432 11.307 8.895 18.919 8.895s14.41-3.463 18.917-8.895v-1.155c0-2.238-1.38-4.27-3.543-5.294"/></g><g clip-path="url(#clip-79CFF88D-5836-F693-9AC8-B489F3EAD8FD)"><path fill="#cbcacc" d="M605.37 456.204h44.224v-4.634H605.37z"/></g><g clip-path="url(#clip-79CFF88D-5836-F693-9AC8-B489F3EAD8FD)"><path fill="#cbcacc" d="M577.85 541.112h61.07v-4.632h-61.07z"/></g><g clip-path="url(#clip-79CFF88D-5836-F693-9AC8-B489F3EAD8FD)"><path fill="#bababa" d="M605.37 428.124h48.76v-4.634h-48.76z"/></g><g clip-path="url(#clip-79CFF88D-5836-F693-9AC8-B489F3EAD8FD)"><path fill="#bababa" d="M546.96 479.342h19.423v-4.632H546.96z"/></g><g clip-path="url(#clip-79CFF88D-5836-F693-9AC8-B489F3EAD8FD)"><path fill="#bababa" d="M546.96 494.784h19.423v-4.634H546.96z"/></g><g clip-path="url(#clip-79CFF88D-5836-F693-9AC8-B489F3EAD8FD)"><path fill="#bababa" d="M546.96 525.664h19.423v-4.634H546.96z"/></g><g clip-path="url(#clip-79CFF88D-5836-F693-9AC8-B489F3EAD8FD)"><path fill="#bababa" d="M605.37 439.352h81.81v-4.632h-81.81z"/></g><g clip-path="url(#clip-79CFF88D-5836-F693-9AC8-B489F3EAD8FD)"><path fill="#cbcacc" d="M577.85 510.224h23.397v-4.634H577.85z"/></g><g clip-path="url(#clip-79CFF88D-5836-F693-9AC8-B489F3EAD8FD)"><path fill="#cbcacc" d="M612.71 510.224h46.646v-4.634H612.71z"/></g><g clip-path="url(#clip-79CFF88D-5836-F693-9AC8-B489F3EAD8FD)"><path fill="#cbcacc" d="M577.85 479.342h33.573v-4.632H577.85z"/></g><g clip-path="url(#clip-79CFF88D-5836-F693-9AC8-B489F3EAD8FD)"><path fill="#cbcacc" d="M622.89 479.342h64.291v-4.632H622.89z"/></g><g clip-path="url(#clip-79CFF88D-5836-F693-9AC8-B489F3EAD8FD)"><path fill="#cbcacc" d="M577.85 494.784h53.584v-4.634H577.85z"/></g><g clip-path="url(#clip-79CFF88D-5836-F693-9AC8-B489F3EAD8FD)"><path fill="#cbcacc" d="M642.9 494.784h44.279v-4.634H642.9z"/></g><g clip-path="url(#clip-79CFF88D-5836-F693-9AC8-B489F3EAD8FD)"><path fill="#cbcacc" d="M577.85 525.664h42.176v-4.634H577.85z"/></g><g clip-path="url(#clip-79CFF88D-5836-F693-9AC8-B489F3EAD8FD)"><path fill="#cbcacc" d="M631.49 525.664h55.687v-4.634H631.49z"/></g><g clip-path="url(#clip-79CFF88D-5836-F693-9AC8-B489F3EAD8FD)"><path fill="#3dacd3" d="M532.92 379.14h168.467v188.095H532.92zm4.212 183.884h160.053V383.35H537.132z"/></g><g clip-path="url(#clip-79CFF88D-5836-F693-9AC8-B489F3EAD8FD)"><path fill="#3dacd3" d="M645.237 358.79h-56.155a4.211 4.211 0 1 0 0 8.422h56.155a4.211 4.211 0 1 0 0-8.422"/></g><g clip-path="url(#clip-79CFF88D-5836-F693-9AC8-B489F3EAD8FD)"><path fill="#3dacd3" d="M629.79 576.36h-25.27a7.018 7.018 0 0 0-7.02 7.018 7.018 7.018 0 0 0 7.02 7.019h25.27a7.018 7.018 0 0 0 7.019-7.019 7.018 7.018 0 0 0-7.02-7.018"/></g><g clip-path="url(#clip-79CFF88D-5836-F693-9AC8-B489F3EAD8FD)"><path fill="#372665" d="M674.094 259.107c-5.06-.015-9.133-6.56-9.104-14.615.03-8.054 4.151-14.57 9.207-14.552 5.055.017 9.13 6.564 9.104 14.62-.03 8.053-4.153 14.566-9.207 14.547"/></g><g clip-path="url(#clip-79CFF88D-5836-F693-9AC8-B489F3EAD8FD)"><path fill="#372665" d="M718.575 265.976c-5.89-3.385-12.41-11.85-9.924-19.309 5.817-17.43-7.77-23.665-14.498-24.955-6.728-1.285-12.666.426-16.406 3.423-6.085 4.875-4.265 13.265-.873 20.026-3.681 2.123-5.448 6.68-3.335 10.073 4.614 7.403.64 17.357-2.101 23.27-4.425 9.516 1.736 21.334 12.465 26.724 10.724 5.393 24.694 4.819 35.466-.006 5.348-2.393 10.173-5.892 12.609-10.533 5.262-10.02-2.338-22.352-13.403-28.713"/></g><g clip-path="url(#clip-79CFF88D-5836-F693-9AC8-B489F3EAD8FD)"><path fill="#e8e5ed" d="M644.705 332.668c-2.566.364-5.253.59-8.064.666a3.737 3.737 0 0 1-3.84-3.629 3.727 3.727 0 0 1 3.63-3.838c13.106-.362 22.914-4.223 29.137-11.476 9.506-11.077 7.7-26.475 7.677-26.63-.257-2.046 1.221-3.896 3.246-4.172a3.73 3.73 0 0 1 4.168 3.24c.1.764 2.218 18.864-9.419 32.426-6.249 7.282-15.154 11.775-26.535 13.413"/></g><g clip-path="url(#clip-79CFF88D-5836-F693-9AC8-B489F3EAD8FD)"><path fill="#daaee5" d="M676.067 280.883c-3.49.5-5.98 3.74-5.541 7.21.014.14 1.592 14.46-7.036 24.516-4.218 4.913-10.36 8.119-18.23 9.593 2.274 3.874 2.66 8.892.845 12.985 11.558-1.854 20.723-6.594 27.205-14.152 12.424-14.47 10.16-33.739 10.061-34.549-.447-3.536-3.69-6.057-7.304-5.603"/></g><g clip-path="url(#clip-79CFF88D-5836-F693-9AC8-B489F3EAD8FD)"><path fill="#e8e5ed" d="M683.427 269.99l-.087 4.22c2.158-.322 4.775-1.281 6.135-2.874l.069-3.146c-1.84 1.24-3.937 1.896-6.117 1.8"/></g><g clip-path="url(#clip-79CFF88D-5836-F693-9AC8-B489F3EAD8FD)"><path fill="#fff" d="M677.099 287.232c-1.915-.967-3.468-3.877-1.176-6.527 2.257-2.62 5.74-4.073 9.469-4.212l.966-.035c3.299-.127 6.299 1.31 8.291 3.646-1.583 4.913-12.364 9.116-17.55 7.128"/></g><g clip-path="url(#clip-79CFF88D-5836-F693-9AC8-B489F3EAD8FD)"><path fill="#fff" d="M683.424 268.988l-.087 4.22-.157 7.93 6.087.104.19-10.124.084-3.928c-1.84 1.237-3.936 1.9-6.117 1.798"/></g><g clip-path="url(#clip-79CFF88D-5836-F693-9AC8-B489F3EAD8FD)"><path fill="#fff" d="M684.928 272.178c5.761-.06 10.855-2.87 14.036-7.176a17.58 17.58 0 0 0 3.442-10.658l-.069-6.94a17.6 17.6 0 0 0-5.64-12.761 17.607 17.607 0 0 0-12.197-4.722 17.614 17.614 0 0 0-8.554 2.309c-5.387 3.07-8.997 8.891-8.925 15.528l.069 6.942c.064 6.39 3.514 11.95 8.627 14.997a17.585 17.585 0 0 0 9.21 2.48"/></g><g clip-path="url(#clip-79CFF88D-5836-F693-9AC8-B489F3EAD8FD)"><path fill="#8149e0" d="M671.502 329.607c-2.055 9.025 3.595 18.006 12.618 20.06 9.027 2.057 18.007-3.596 20.062-12.619 2.057-9.021-3.594-18-12.62-20.056-9.024-2.056-18.005 3.594-20.06 12.615"/></g><g clip-path="url(#clip-79CFF88D-5836-F693-9AC8-B489F3EAD8FD)"><path fill="#372665" d="M683.768 262.99a4.72 4.72 0 0 1-4.6 3.895 4.717 4.717 0 0 1-4.678-3.801z"/></g><g clip-path="url(#clip-79CFF88D-5836-F693-9AC8-B489F3EAD8FD)"><path fill="#daaee5" d="M668.2 290.046c-1.15 3.158 2.043 6.347 5.384 6.71a6.085 6.085 0 0 0 6.712-5.385c.368-3.337-4.616-10.656-6.495-7.872-1.789 2.655-4.623 3.842-5.602 6.546"/></g><g clip-path="url(#clip-79CFF88D-5836-F693-9AC8-B489F3EAD8FD)"><path fill="#daaee5" d="M694.651 280.111a10.321 10.321 0 0 1 2.478 6.242s-1.506 27.527 6.045 40.205l-32.094 2.682.86-38.097c-.189-4.044 1.364-7.754 3.985-10.431.153 6.134 12.786-1.25 18.726-.601"/></g><g clip-path="url(#clip-79CFF88D-5836-F693-9AC8-B489F3EAD8FD)"><path fill="#daaee5" d="M673.04 403.014c-2.962.146-4.422 2.921-4.675 3.71-1.377 4.32-.884 8.842-3.652 16.168-1.884 4.998-3.776 6.017-5.114 10.082-1.151 3.489 2.061 4.628 5.227 3.4 1.237-.485 9.05-2.535 9.191-8.774.104-4.562-.43-8.049 1.015-11.963 1.445-3.912 2.69-1.7 3.156-.51.33.856 1.374 3.3 1.723 4.062a.57.57 0 0 0 .732.295l.012-.005a.569.569 0 0 0 .309-.781c-.438-.89-1.249-3.965-1.549-7.9-.366-4.814-3.69-7.916-6.375-7.784"/></g><g clip-path="url(#clip-79CFF88D-5836-F693-9AC8-B489F3EAD8FD)"><path fill="#e8e5ed" d="M669.93 424.549c1.628-3.65 3.565-14.862 2.603-17.336-1.13-2.907-7.19-3.121-7.562-.51-.642 4.491 1.215 12.327-2.491 20.733.46 2.204 5.558 1.365 7.45-2.887"/></g><g clip-path="url(#clip-79CFF88D-5836-F693-9AC8-B489F3EAD8FD)"><path fill="#8149e0" d="M693.074 348.728l-39.488 18.355 3.744-8.912 14.63 47.42a5.455 5.455 0 0 1-3.604 6.817c-2.747.846-5.66-.6-6.692-3.231l-17.988-46.256a6.94 6.94 0 0 1 3.45-8.77l.293-.14 39.28-18.796c3.722-1.784 8.185-.207 9.97 3.515 1.781 3.72.204 8.183-3.517 9.967-.016.003-.062.028-.078.031"/></g><g clip-path="url(#clip-79CFF88D-5836-F693-9AC8-B489F3EAD8FD)"><path fill="#daaee5" d="M646.506 388.108c-2.686-1.254-5.274.525-5.865 1.102-3.232 3.176-4.908 7.407-10.775 12.6-3.996 3.538-6.144 3.56-9.228 6.528-2.645 2.552-.336 5.06 3.038 5.446 1.324.152 9.19 1.977 12.226-3.475 2.216-3.984 3.37-7.316 6.477-10.106 3.104-2.787 3.175-.252 3.03 1.022-.106.91-.325 3.556-.373 4.392a.577.577 0 0 0 .511.605l.013.002a.568.568 0 0 0 .639-.546c.028-.99.745-4.09 2.316-7.71 1.922-4.43.43-8.722-2.009-9.86"/></g><g clip-path="url(#clip-79CFF88D-5836-F693-9AC8-B489F3EAD8FD)"><path fill="#e8e5ed" d="M633.72 405.708c3.144-2.472 10.087-11.482 10.39-14.121.357-3.097-4.902-6.116-6.453-3.978-2.662 3.672-4.678 11.473-11.873 17.177-.623 2.166 4.276 3.795 7.936.922"/></g><g clip-path="url(#clip-79CFF88D-5836-F693-9AC8-B489F3EAD8FD)"><path fill="#8149e0" d="M690.305 349.934l-43.491-2.187 7.47-6.141-9.183 48.771a5.452 5.452 0 0 1-6.368 4.347c-2.825-.529-4.726-3.168-4.408-5.978l5.664-49.3a6.944 6.944 0 0 1 7.147-6.151l.32.012 43.517 1.699a7.466 7.466 0 0 1 7.174 7.752 7.47 7.47 0 0 1-7.757 7.177l-.085-.001"/></g><g clip-path="url(#clip-79CFF88D-5836-F693-9AC8-B489F3EAD8FD)"><path fill="#e8e5ed" d="M693.415 333.326c-1.901.323-3.941.553-6.118.69a3.731 3.731 0 0 1-3.97-3.482c-.131-2.062 1.438-3.83 3.492-3.971 6.919-.446 15.641-2.145 17.868-7.719 3.52-8.79-8.616-24.795-13.146-29.708a3.732 3.732 0 0 1 .216-5.276 3.737 3.737 0 0 1 5.278.212c2.112 2.293 20.486 22.83 14.59 37.55-2.467 6.16-8.584 10.084-18.21 11.704"/></g><g clip-path="url(#clip-79CFF88D-5836-F693-9AC8-B489F3EAD8FD)"><path fill="#daaee5" d="M699.042 282.215a6.455 6.455 0 0 0-5.84-1.993 6.456 6.456 0 0 0-3.809 2.138c-2.186 2.497-1.933 6.359.304 8.815 5.159 5.67 15.164 19.868 12.45 26.648-.475 1.182-1.444 2.132-2.682 2.891-2.312 1.424-3.597 4.05-3.072 6.71l.025.132c.794 4.248 5.537 6.63 9.287 4.482 4.036-2.312 6.872-5.452 8.457-9.405 6.384-15.941-11.478-36.466-15.12-40.418"/></g><g clip-path="url(#clip-79CFF88D-5836-F693-9AC8-B489F3EAD8FD)"><path fill="#e8e5ed" d="M671.36 329.736a8.915 8.915 0 0 0 2.602 5.61l13.652-1.12a8.971 8.971 0 0 0 1.655-5.958c-.41-4.944-4.747-8.626-9.69-8.217-4.947.407-8.625 4.742-8.218 9.685"/></g><g clip-path="url(#clip-79CFF88D-5836-F693-9AC8-B489F3EAD8FD)"><path fill="#e8e5ed" d="M624.867 331.419c.087 2.21.969 4.2 2.364 5.713l13.687-.542a8.93 8.93 0 0 0 1.898-5.886 8.983 8.983 0 0 0-17.949.714"/></g><g clip-path="url(#clip-79CFF88D-5836-F693-9AC8-B489F3EAD8FD)"><path fill="#372665" d="M705.36 243.87c-1.975 5.643-10.864 7.66-19.855 4.508-8.988-3.153-14.67-10.28-12.692-15.924 1.982-5.643 10.871-7.658 19.858-4.503 8.989 3.152 14.672 10.28 12.69 15.918"/></g><g clip-path="url(#clip-79CFF88D-5836-F693-9AC8-B489F3EAD8FD)"><path fill="#566cd3" d="M695.918 334.89a2.246 2.246 0 0 0-2.245-2.25H612.29c-1.705 0-3.1 1.012-3.1 2.245 0 1.243 1.395 2.251 3.1 2.251h81.383a2.245 2.245 0 0 0 2.245-2.246"/></g><g clip-path="url(#clip-79CFF88D-5836-F693-9AC8-B489F3EAD8FD)"><path fill="#fff" d="M699.106 334.885c0 1.243-1.087 2.251-2.423 2.251H665.78c-1.332 0-2.42-1.008-2.42-2.251 0-1.233 1.088-2.245 2.42-2.245h30.903c1.336 0 2.423 1.012 2.423 2.245"/></g><g clip-path="url(#clip-79CFF88D-5836-F693-9AC8-B489F3EAD8FD)"><path fill="#fff" d="M609.31 290.529v41.034a3.31 3.31 0 0 0 3.309 3.311h54.147a3.312 3.312 0 0 0 3.313-3.311v-41.034a3.31 3.31 0 0 0-3.313-3.309h-54.147a3.308 3.308 0 0 0-3.309 3.309"/></g><g clip-path="url(#clip-79CFF88D-5836-F693-9AC8-B489F3EAD8FD)"><path fill="#566cd3" d="M606.79 290.529v41.034a3.31 3.31 0 0 0 3.309 3.311h54.147a3.31 3.31 0 0 0 3.31-3.311v-41.034a3.308 3.308 0 0 0-3.31-3.309h-54.147a3.308 3.308 0 0 0-3.309 3.309"/></g><g clip-path="url(#clip-79CFF88D-5836-F693-9AC8-B489F3EAD8FD)"><path fill="#fff" d="M646.095 311.044a3.486 3.486 0 0 0-3.489-3.484h-10.875a3.488 3.488 0 0 0-3.491 3.484 3.491 3.491 0 0 0 3.491 3.49h10.875a3.489 3.489 0 0 0 3.489-3.49"/></g><g clip-path="url(#clip-79CFF88D-5836-F693-9AC8-B489F3EAD8FD)"><path fill="#4fb7ef" d="M404.487 205.448a6.51 6.51 0 0 1-5.272-2.671l-22.558-30.879a6.515 6.515 0 0 1 .228-7.987l29.484-35.797a6.523 6.523 0 0 1 9.175-.891 6.518 6.518 0 0 1 .888 9.173l-26.268 31.896 19.576 26.797a6.512 6.512 0 0 1-1.42 9.104 6.482 6.482 0 0 1-3.833 1.255"/></g><g clip-path="url(#clip-79CFF88D-5836-F693-9AC8-B489F3EAD8FD)"><path fill="#4fb7ef" d="M447.793 205.389a6.469 6.469 0 0 1-3.84-1.255 6.513 6.513 0 0 1-1.41-9.11l19.658-26.86-26.168-31.806a6.517 6.517 0 1 1 10.069-8.28l29.38 35.714a6.527 6.527 0 0 1 .227 7.99l-22.651 30.941a6.507 6.507 0 0 1-5.265 2.666"/></g><g clip-path="url(#clip-79CFF88D-5836-F693-9AC8-B489F3EAD8FD)"><path fill="#4fb7ef" d="M406.41 139.323c.045-5.577 4.87-10.975 9.863-13.574 7.477-3.89 19.009-1.183 22.685 1.007 6.256 3.721 9.983 11.279 9.541 19.054l.438 41.698H404.65s1.658-35.494 1.76-48.185"/></g><g clip-path="url(#clip-79CFF88D-5836-F693-9AC8-B489F3EAD8FD)"><path fill="#372665" d="M445.606 88.204c0 10.383-8.42 18.802-18.806 18.802-10.382 0-18.8-8.419-18.8-18.802 0-10.386 8.418-18.804 18.8-18.804 10.387 0 18.806 8.418 18.806 18.804"/></g><g clip-path="url(#clip-79CFF88D-5836-F693-9AC8-B489F3EAD8FD)"><path fill="#fff" d="M433.692 111.3l-.046 17.877-.041 3.268-13.705-.03.69-20.16.197-8.135z"/></g><g clip-path="url(#clip-79CFF88D-5836-F693-9AC8-B489F3EAD8FD)"><path fill="#fff" d="M430.368 77.45h-7.137c-6.302 0-12.2 5.16-11.41 11.413.572 4.55 0 7.97 0 14.725 0 5.667 6.634 16.658 12.301 16.658h5.355c5.667 0 12.305-10.991 12.305-16.658 0-6.754-.577-10.175 0-14.725.786-6.253-5.113-11.413-11.414-11.413"/></g><g clip-path="url(#clip-79CFF88D-5836-F693-9AC8-B489F3EAD8FD)"><path fill="#e8e5ed" d="M427.472 151.9c3.248-9.999 6.821-16.985 10.033-25.872-9.845-3.715-19.38-1.638-21.405 0 3.214 8.887 6.78 15.875 10.035 25.872.167.721.654 1.882.664 1.865.013.017.03.054.042.07.032-.115.463-1.214.63-1.935"/></g><g clip-path="url(#clip-79CFF88D-5836-F693-9AC8-B489F3EAD8FD)"><path fill="#daaee5" d="M427.98 126.74h-2.359l-2.221 13.519 1.567 8.223 1.83 5.289 1.838-5.29 1.563-8.222z"/></g><g clip-path="url(#clip-79CFF88D-5836-F693-9AC8-B489F3EAD8FD)"><path fill="#372665" d="M433.915 227.39h-14.229c-10.224 0-17.894-9.351-15.885-19.379l.854-20.501h44.287l.856 20.501c2.007 10.028-5.659 19.38-15.883 19.38"/></g><g clip-path="url(#clip-79CFF88D-5836-F693-9AC8-B489F3EAD8FD)"><path fill="#372665" d="M421.02 110.06c.515 2.732 2.9 4.8 5.778 4.8 2.881 0 5.27-2.068 5.78-4.8z"/></g><g clip-path="url(#clip-79CFF88D-5836-F693-9AC8-B489F3EAD8FD)"><path fill="#d393e2" d="M447.07 213.21h-47.336a4.403 4.403 0 0 1-4.404-4.401V177.43c0-2.432 1.972-4.401 4.404-4.401h47.335a4.402 4.402 0 0 1 4.405 4.4v31.379a4.403 4.403 0 0 1-4.405 4.402"/></g><g clip-path="url(#clip-79CFF88D-5836-F693-9AC8-B489F3EAD8FD)"><path fill="#daaee5" d="M447.07 215.076h-47.336a4.406 4.406 0 0 1-4.404-4.407v-31.374a4.405 4.405 0 0 1 4.404-4.405h47.335a4.404 4.404 0 0 1 4.405 4.405v31.374a4.405 4.405 0 0 1-4.405 4.407"/></g><g clip-path="url(#clip-79CFF88D-5836-F693-9AC8-B489F3EAD8FD)"><path fill="#fff" d="M429.885 198.324h-12.968a3.316 3.316 0 0 1-3.317-3.311v-.069a3.318 3.318 0 0 1 3.317-3.314h12.968a3.315 3.315 0 0 1 3.312 3.314v.069a3.314 3.314 0 0 1-3.312 3.311"/></g><g clip-path="url(#clip-79CFF88D-5836-F693-9AC8-B489F3EAD8FD)"><path fill="#e8e5ed" d="M428.558 127.504c-.671.615-3.062.55-3.7-.1-.607-.626-.818-3.454-.818-3.454l5.526.154s-.367 2.813-1.008 3.4"/></g><g clip-path="url(#clip-79CFF88D-5836-F693-9AC8-B489F3EAD8FD)"><path fill="#372665" d="M426.437 69.4c-12.516 0-23.357 13.19-23.357 13.19 15.599 9.541 26.567 2.537 30.347-.554 1.095-.894 3.327-2.785 3.327-5.265z"/></g><g clip-path="url(#clip-79CFF88D-5836-F693-9AC8-B489F3EAD8FD)"><path fill="#d3d3d3" d="M420.954 131.005l-4.664-5.62 3.885-4.995 6.62 3.595z"/></g><g clip-path="url(#clip-79CFF88D-5836-F693-9AC8-B489F3EAD8FD)"><path fill="#d3d3d3" d="M432.649 131.005l4.663-5.62-3.89-4.995-6.622 3.595z"/></g><g clip-path="url(#clip-79CFF88D-5836-F693-9AC8-B489F3EAD8FD)"><path fill="#fff" d="M434.536 275.993l3.816-14.31-.282-.008a1.387 1.387 0 1 1 .11-2.773l.9.033.43-1.608-.43-.017a1.39 1.39 0 0 1-1.3-1.697c.154-.649.739-1.1 1.406-1.074l1.056.038 2.397-8.998c.108-.18.247-.348.408-.5.148-.343.313-.682.512-1.009a8.234 8.234 0 0 1 11.32-2.744c3.886 2.365 5.114 7.434 2.747 11.32a1.086 1.086 0 0 1-.056.082c-.009.014-.013.03-.02.042l-16.243 26.647c-.257.424-.625.76-1.058 1.037-2.936 1.849-6.604-1.109-5.713-4.46"/></g><g clip-path="url(#clip-79CFF88D-5836-F693-9AC8-B489F3EAD8FD)"><path fill="#566cd3" d="M444.34 254.933c3.889 2.368 8.957 1.139 11.323-2.747a8.235 8.235 0 0 0-2.745-11.32c-3.885-2.371-8.954-1.138-11.322 2.747-2.37 3.882-1.138 8.95 2.744 11.32"/></g><g clip-path="url(#clip-79CFF88D-5836-F693-9AC8-B489F3EAD8FD)"><path fill="#566cd3" d="M439.345 278.963l16.241-26.645a5.968 5.968 0 0 0-1.988-8.207c-2.817-1.718-11.203-1.801-12.921 1.016l-8.1 30.414c-.893 3.352 2.775 6.308 5.71 4.46a3.207 3.207 0 0 0 1.058-1.038"/></g><g clip-path="url(#clip-79CFF88D-5836-F693-9AC8-B489F3EAD8FD)"><path fill="#fff" d="M441.707 255.896a1.388 1.388 0 0 0-1.301-1.697l-3.187-.118a1.377 1.377 0 0 0-1.401 1.075 1.38 1.38 0 0 0 1.297 1.696l3.187.12a1.39 1.39 0 0 0 1.405-1.076"/></g><g clip-path="url(#clip-79CFF88D-5836-F693-9AC8-B489F3EAD8FD)"><path fill="#e8e5ed" d="M440.698 260.267a1.384 1.384 0 0 0-1.299-1.697l-3.188-.119a1.387 1.387 0 1 0-.106 2.772l3.19.121a1.389 1.389 0 0 0 1.403-1.076"/></g><g clip-path="url(#clip-79CFF88D-5836-F693-9AC8-B489F3EAD8FD)"><path fill="#372665" d="M404.829 204.087l49.362 35.39-15.523 13.317-44.439-33.926c-4.043-2.896-4.97-8.52-2.072-12.563l.107-.148c2.898-4.04 8.524-4.967 12.565-2.07"/></g><g clip-path="url(#clip-79CFF88D-5836-F693-9AC8-B489F3EAD8FD)"><path fill="#fff" d="M431.208 299.023l.979-14.778.27.079a1.38 1.38 0 0 0 1.772-1.19 1.383 1.383 0 0 0-.984-1.466l-.867-.261.11-1.66.412.123a1.392 1.392 0 0 0 1.78-1.192 1.398 1.398 0 0 0-.987-1.468l-1.015-.3.615-9.293a2.632 2.632 0 0 0-.222-.606 8.456 8.456 0 0 0-.164-1.12c-.995-4.435-5.404-7.227-9.843-6.229-4.436.993-7.227 5.402-6.233 9.84.008.032.02.062.028.093.004.017 0 .036.004.049l6.837 30.45c.108.482.346.923.667 1.321 2.189 2.694 6.61 1.07 6.841-2.392"/></g><g clip-path="url(#clip-79CFF88D-5836-F693-9AC8-B489F3EAD8FD)"><path fill="#566cd3" d="M428.674 275.934a8.24 8.24 0 0 1-9.843-6.232 8.237 8.237 0 1 1 9.843 6.232"/></g><g clip-path="url(#clip-79CFF88D-5836-F693-9AC8-B489F3EAD8FD)"><path fill="#566cd3" d="M425.703 300.296l-6.836-30.448a5.972 5.972 0 0 1 4.52-7.137c3.218-.72 11.187 1.888 11.91 5.106l-2.088 31.405c-.226 3.462-4.655 5.088-6.838 2.395-.323-.4-.563-.838-.668-1.321"/></g><g clip-path="url(#clip-79CFF88D-5836-F693-9AC8-B489F3EAD8FD)"><path fill="#e8e5ed" d="M430.857 277.69a1.386 1.386 0 0 1 1.777-1.19l3.057.91a1.386 1.386 0 1 1-.788 2.656l-3.062-.91a1.385 1.385 0 0 1-.984-1.466"/></g><g clip-path="url(#clip-79CFF88D-5836-F693-9AC8-B489F3EAD8FD)"><path fill="#e8e5ed" d="M430.417 282.15c.087-.863.94-1.44 1.777-1.192l3.058.912a1.39 1.39 0 0 1 .985 1.468 1.388 1.388 0 0 1-1.774 1.19l-3.062-.91a1.388 1.388 0 0 1-.984-1.467"/></g><g clip-path="url(#clip-79CFF88D-5836-F693-9AC8-B489F3EAD8FD)"><path fill="#372665" d="M440.584 211.878l-23.394 56.05 18.791 2.256 21.393-51.302c1.912-4.586-.256-9.858-4.844-11.774l-.167-.07c-4.59-1.916-9.868.25-11.779 4.84"/></g><g clip-path="url(#clip-79CFF88D-5836-F693-9AC8-B489F3EAD8FD)"><path fill="#372665" d="M288.026 572.414a8.827 8.827 0 0 1-16.976 4.841c-1.336-4.685 1.38-9.571 6.068-10.905 4.688-1.336 9.573 1.38 10.908 6.064"/></g><g clip-path="url(#clip-79CFF88D-5836-F693-9AC8-B489F3EAD8FD)"><path fill="#372665" d="M314.27 574.106l-32.153 9.17a6.4 6.4 0 0 1-7.914-4.396c-.97-3.4 1.337-12.08 4.734-13.05l33.727.31c3.716.035 5.727 4.663 2.978 7.169-.406.37-.862.651-1.372.797"/></g><g clip-path="url(#clip-79CFF88D-5836-F693-9AC8-B489F3EAD8FD)"><path fill="#fff" d="M289.774 569.974a1.481 1.481 0 0 1-1.383-1.826l.785-3.324a1.486 1.486 0 1 1 2.893.684l-.786 3.325a1.479 1.479 0 0 1-1.51 1.141"/></g><g clip-path="url(#clip-79CFF88D-5836-F693-9AC8-B489F3EAD8FD)"><path fill="#fff" d="M294.572 570.175a1.486 1.486 0 0 1-1.382-1.827l.784-3.326a1.494 1.494 0 0 1 1.512-1.14 1.483 1.483 0 0 1 1.384 1.824l-.788 3.325a1.488 1.488 0 0 1-1.51 1.144"/></g><g clip-path="url(#clip-79CFF88D-5836-F693-9AC8-B489F3EAD8FD)"><path fill="#4fb7ef" d="M269.838 512.366l-.177-.091-48.207-28.415-14.414 15.626 50.585 26.812 11.866 51.628.36-.06 13.55-12.279-9.165-47.322c-.5-2.42-2.043-4.65-4.398-5.899"/></g><g clip-path="url(#clip-79CFF88D-5836-F693-9AC8-B489F3EAD8FD)"><path fill="#372665" d="M172.79 591.533a7.933 7.933 0 0 1-7.952 7.916 7.937 7.937 0 0 1-7.918-7.954 7.932 7.932 0 0 1 7.952-7.915 7.932 7.932 0 0 1 7.918 7.953"/></g><g clip-path="url(#clip-79CFF88D-5836-F693-9AC8-B489F3EAD8FD)"><path fill="#372665" d="M195.045 599.525l-30.067-.07a5.75 5.75 0 0 1-5.738-5.764c.006-3.177 4.157-10.105 7.335-10.101l29.064 8.652c3.203.955 3.789 5.457.792 6.939-.447.216-.909.344-1.386.344"/></g><g clip-path="url(#clip-79CFF88D-5836-F693-9AC8-B489F3EAD8FD)"><path fill="#fff" d="M174.91 589.863a1.337 1.337 0 0 1-.738-1.921l1.504-2.68a1.342 1.342 0 0 1 1.59-.613 1.336 1.336 0 0 1 .74 1.925l-1.505 2.676a1.337 1.337 0 0 1-1.59.613"/></g><g clip-path="url(#clip-79CFF88D-5836-F693-9AC8-B489F3EAD8FD)"><path fill="#fff" d="M179.005 591.222a1.337 1.337 0 0 1-.743-1.923l1.508-2.676c.314-.56.978-.815 1.586-.616a1.337 1.337 0 0 1 .743 1.926l-1.508 2.677a1.33 1.33 0 0 1-1.586.612"/></g><g clip-path="url(#clip-79CFF88D-5836-F693-9AC8-B489F3EAD8FD)"><path fill="#4fb7ef" d="M228.434 476.788l-31.969-3.498c-1.985 2.246-4.392 9.222-5.103 12.36a18.52 18.52 0 0 0 2.42 14.034 18.544 18.544 0 0 0 11.636 8.23c2.453.56 14.577.746 20.28-4.807 8.344-8.133 2.736-26.319 2.736-26.319"/></g><g clip-path="url(#clip-79CFF88D-5836-F693-9AC8-B489F3EAD8FD)"><path fill="#4fb7ef" d="M208.495 493.87H187.92l7.903 48.948-34.722 40.453 18.019 5.068 33.135-37.162c1.627-1.843 2.475-4.406 2.05-7.018z"/></g><g clip-path="url(#clip-79CFF88D-5836-F693-9AC8-B489F3EAD8FD)"><path fill="#8149e0" d="M292.571 473.057l-47.65-.826a5.655 5.655 0 0 1-4.962-3.118L221.28 431.98l10.12-5.09 17.142 34.077 44.224.773z"/></g><g clip-path="url(#clip-79CFF88D-5836-F693-9AC8-B489F3EAD8FD)"><path fill="#fff" d="M213.89 406.99s3.155 7.736 9.742 9.674l.483-10.084z"/></g><g clip-path="url(#clip-79CFF88D-5836-F693-9AC8-B489F3EAD8FD)"><path fill="#fff" d="M224.554 397.506l-1.449 30.066-13.935-.662 2.016-29.038.57-8.262z"/></g><g clip-path="url(#clip-79CFF88D-5836-F693-9AC8-B489F3EAD8FD)"><path fill="#fff" d="M229.095 415.314c.552-.089 1.631-.386 2.173-.535 5.183-1.424 10.302-9.97 10.104-14.89-.234-5.87-.85-8.814-.51-12.788.468-5.458-4.833-9.73-10.307-9.513l-11.09.44a7.555 7.555 0 0 0-7.249 7.852l.716 17.995c.257 6.413 9.819 12.446 16.163 11.439"/></g><g clip-path="url(#clip-79CFF88D-5836-F693-9AC8-B489F3EAD8FD)"><path fill="#fff" d="M206.18 419.312a7.723 7.723 0 0 1 5.225-1.27l6.168.717a17.602 17.602 0 0 1 8.02 3.026c-6.375 1.861-14.08 1.219-19.413-2.473"/></g><g clip-path="url(#clip-79CFF88D-5836-F693-9AC8-B489F3EAD8FD)"><path fill="#8149e0" d="M196.608 431.147c.28-4.844 4.572-11.376 9.857-12.017 8.937 1.256 16.961 1.746 19.983 2.46 5.198 3.607 8.29 9.878 7.505 16.602l-.785 55.629c-16.71 11.782-47.328 7.053-47.328 7.053 0-24.021 10.22-60.202 10.768-69.727"/></g><g clip-path="url(#clip-79CFF88D-5836-F693-9AC8-B489F3EAD8FD)"><path fill="#8149e0" d="M259.064 472.749l-38.91.414a5.663 5.663 0 0 1-5.66-4.826l-6.404-42.82 11.203-1.677 5.676 37.943 33.976-.36z"/></g><g clip-path="url(#clip-79CFF88D-5836-F693-9AC8-B489F3EAD8FD)"><path fill="#8149e0" d="M224.868 421.3c-2.544-.605-7.073-.756-14.268-1.63 3.993 9.372 14.765 17.162 17.954 28.143 1.672-1.827 1.511-22.911-3.686-26.513"/></g><g clip-path="url(#clip-79CFF88D-5836-F693-9AC8-B489F3EAD8FD)"><path fill="#4fb7ef" d="M224.42 423.024c-.463-.526-1.953-1.57-1.996-2.126-1.153-.138-.965.292-2.564.147 4.362 4.031 1.84 10.68 3.56 16.759 2.19 3.105 4.077 6.382 5.132 10.008.926-1.015 1.283-7.935.539-14.52-.08-.71-1.124-6.222-4.671-10.268"/></g><g clip-path="url(#clip-79CFF88D-5836-F693-9AC8-B489F3EAD8FD)"><path fill="#8149e0" d="M224.925 424.054c-.55.716-2.892 1.07-3.628.546-.702-.507-1.397-3.227-1.397-3.227l5.412-.813s.133 2.807-.387 3.494"/></g><g clip-path="url(#clip-79CFF88D-5836-F693-9AC8-B489F3EAD8FD)"><path fill="#372665" d="M234.493 388.505c21.47-4.671 6.008-18.315 6.008-18.315s-.427 5.088-4.586 3.425c-7.955-3.19-25.267-5.192-30.025 5.196-3.702 8.091 3.193 25.793 4.498 30.407 2.141-1.34.34-22.171 9.138-21.304 4.809.475 10.268 1.613 14.967.591"/></g><g clip-path="url(#clip-79CFF88D-5836-F693-9AC8-B489F3EAD8FD)"><path fill="#372665" d="M231.245 410.83c4.386-.195 1.561-7.439-.11-7.35-1.673.086-4.274 7.544.11 7.35"/></g><g clip-path="url(#clip-79CFF88D-5836-F693-9AC8-B489F3EAD8FD)"><path fill="#4fb7ef" d="M217.158 426.524l-10.898-7.243 3.696-4.051 12.96 5.76z"/></g><g clip-path="url(#clip-79CFF88D-5836-F693-9AC8-B489F3EAD8FD)"><path fill="#4fb7ef" d="M226.218 423.72l-.622-2.413-2.087-2.177-.889 1.86z"/></g><g clip-path="url(#clip-79CFF88D-5836-F693-9AC8-B489F3EAD8FD)"><path fill="#4fb7ef" d="M216.4 459.56c0-1.322 1.074-2.4 2.4-2.4h86.962c1.822 0 3.316 1.08 3.316 2.399 0 1.325-1.494 2.4-3.316 2.4h-86.961a2.398 2.398 0 0 1-2.401-2.399"/></g><g clip-path="url(#clip-79CFF88D-5836-F693-9AC8-B489F3EAD8FD)"><path fill="#fff" d="M212.99 459.559c0 1.325 1.161 2.4 2.586 2.4h33.02c1.423 0 2.588-1.075 2.588-2.4 0-1.318-1.165-2.399-2.587-2.399h-33.021c-1.425 0-2.586 1.08-2.586 2.399"/></g><g clip-path="url(#clip-79CFF88D-5836-F693-9AC8-B489F3EAD8FD)"><path fill="#fff" d="M308.94 412.167v43.848a3.535 3.535 0 0 1-3.535 3.537h-57.857a3.536 3.536 0 0 1-3.538-3.538v-43.847a3.539 3.539 0 0 1 3.538-3.537h57.857a3.537 3.537 0 0 1 3.535 3.537"/></g><g clip-path="url(#clip-79CFF88D-5836-F693-9AC8-B489F3EAD8FD)"><path fill="#4fb7ef" d="M311.64 412.167v43.848a3.535 3.535 0 0 1-3.535 3.537h-57.86a3.534 3.534 0 0 1-3.535-3.538v-43.847a3.537 3.537 0 0 1 3.535-3.537h57.86a3.537 3.537 0 0 1 3.535 3.537"/></g><g clip-path="url(#clip-79CFF88D-5836-F693-9AC8-B489F3EAD8FD)"><path fill="#fff" d="M269.63 434.087a3.727 3.727 0 0 1 3.729-3.727h11.621a3.73 3.73 0 1 1 0 7.458H273.36a3.728 3.728 0 0 1-3.729-3.731"/></g><g clip-path="url(#clip-79CFF88D-5836-F693-9AC8-B489F3EAD8FD)"><path fill="#e8e5ed" d="M255.407 467.078a9.653 9.653 0 0 1 1.233-6.579l14.628-2.459a9.658 9.658 0 0 1 3.32 5.813c.89 5.296-2.68 10.311-7.976 11.204-5.296.887-10.315-2.685-11.205-7.979"/></g><g clip-path="url(#clip-79CFF88D-5836-F693-9AC8-B489F3EAD8FD)"><path fill="#e8e5ed" d="M286.285 464.375a9.676 9.676 0 0 1 1.776-6.455l14.784-1.23a9.676 9.676 0 0 1 2.822 6.07c.45 5.352-3.53 10.051-8.884 10.496-5.354.451-10.053-3.53-10.498-8.88"/></g><g><path fill="#938b7c" d="M273.5 249a8.5 8.5 0 1 0 0-17 8.5 8.5 0 0 0 0 17z"/><path fill="none" stroke="#979797" stroke-miterlimit="50" d="M273.5 249a8.5 8.5 0 1 0 0-17 8.5 8.5 0 0 0 0 17z"/></g><g><path fill="#938b7c" d="M336.5 636a8.5 8.5 0 1 0 0-17 8.5 8.5 0 0 0 0 17z"/><path fill="none" stroke="#979797" stroke-miterlimit="50" d="M336.5 636a8.5 8.5 0 1 0 0-17 8.5 8.5 0 0 0 0 17z"/></g><g><path fill="#938b7c" d="M612.5 267a8.5 8.5 0 1 0 0-17 8.5 8.5 0 0 0 0 17z"/><path fill="none" stroke="#979797" stroke-miterlimit="50" d="M612.5 267a8.5 8.5 0 1 0 0-17 8.5 8.5 0 0 0 0 17z"/></g><g><path fill="#938b7c" d="M516.5 151a8.5 8.5 0 1 0 0-17 8.5 8.5 0 0 0 0 17z"/><path fill="none" stroke="#979797" stroke-miterlimit="50" d="M516.5 151a8.5 8.5 0 1 0 0-17 8.5 8.5 0 0 0 0 17z"/></g><g><path fill="#d9d7be" d="M168 304a8 8 0 1 0 0-16 8 8 0 0 0 0 16z"/></g><g><path fill="#8adbe7" d="M287.5 216a8.5 8.5 0 1 0 0-17 8.5 8.5 0 0 0 0 17z"/></g><g><path fill="#8adbe7" d="M488.5 203a8.5 8.5 0 1 0 0-17 8.5 8.5 0 0 0 0 17z"/></g><g><path fill="#8adbe7" d="M445.5 628a8.5 8.5 0 1 0 0-17 8.5 8.5 0 0 0 0 17z"/></g><g><path fill="#8adbe7" d="M733.5 419a8.5 8.5 0 1 0 0-17 8.5 8.5 0 0 0 0 17z"/></g><g><path fill="#ddd5f5" d="M237 367a7 7 0 1 0 0-14 7 7 0 0 0 0 14z"/></g><g><path fill="#ddd5f5" d="M226 258a7 7 0 1 0 0-14 7 7 0 0 0 0 14z"/></g><g><path fill="#ddd5f5" d="M653 278a7 7 0 1 0 0-14 7 7 0 0 0 0 14z"/></g><g><path fill="#ddd5f5" d="M239 569a7 7 0 1 0 0-14 7 7 0 0 0 0 14z"/></g><g><path fill="#ddd5f5" d="M517 641a7 7 0 1 0 0-14 7 7 0 0 0 0 14z"/></g><g><path fill="#ddd5f5" d="M571 256a7 7 0 1 0 0-14 7 7 0 0 0 0 14z"/></g><g><path fill="#ddd5f5" d="M741 381a7 7 0 1 0 0-14 7 7 0 0 0 0 14z"/></g><g><path fill="#ddede2" d="M224 292a7 7 0 1 0 0-14 7 7 0 0 0 0 14z"/></g><g><path fill="#ddede2" d="M244 544a7 7 0 1 0 0-14 7 7 0 0 0 0 14z"/></g><g><path fill="#ddede2" d="M373 625a7 7 0 1 0 0-14 7 7 0 0 0 0 14z"/></g><g><path fill="#ddede2" d="M597 238a7 7 0 1 0 0-14 7 7 0 0 0 0 14z"/></g><g><path fill="#ddede2" d="M518 183a7 7 0 1 0 0-14 7 7 0 0 0 0 14z"/></g><g><path fill="#ddede2" d="M390 122a7 7 0 1 0 0-14 7 7 0 0 0 0 14z"/></g></g></svg>